<?xml version="1.0" encoding="UTF-8" standalone="no"?>
<!DOCTYPE svg PUBLIC "-//W3C//DTD SVG 20010904//EN"
    "http://www.w3.org/TR/2001/REC-SVG-20010904/DTD/svg10.dtd">

<svg height="1.11111in"
     viewBox="0 0 200 100" width="2.22222in"
     xmlns="http://www.w3.org/2000/svg">
    <path
        style="fill:none;stroke:#cc0000;stroke-width:1;stroke-linecap:round;stroke-linejoin:round;"
        d="M 96.00,37.00
           C 96.00,37.00 96.00,68.00 96.00,68.00
             91.10,67.97 78.70,69.06 75.43,65.69
             71.26,61.38 72.19,50.16 77.11,46.74
             80.63,44.29 85.15,44.91 89.00,46.00
             89.00,46.00 89.00,37.00 89.00,37.00
             89.00,37.00 96.00,37.00 96.00,37.00 Z"/>

    <path
        style="fill:none;stroke:#cc0000;stroke-width:1;stroke-linecap:round;stroke-linejoin:round;"
        d="M 156.00,37.00
           C 156.00,37.00 156.00,42.00 156.00,42.00
             156.00,42.00 149.00,42.00 149.00,42.00
             149.00,42.00 149.00,37.00 149.00,37.00
             149.00,37.00 156.00,37.00 156.00,37.00 Z"/>

    <path
        style="fill:none;stroke:#cc0000;stroke-width:1;stroke-linecap:round;stroke-linejoin:round;"
        d="M 185.00,37.00
           C 185.00,37.00 185.00,68.00 185.00,68.00
             180.10,67.97 167.70,69.06 164.43,65.69
             160.26,61.38 161.19,50.16 166.11,46.74
             169.63,44.29 174.15,44.91 178.00,46.00
             178.00,46.00 178.00,37.00 178.00,37.00
             178.00,37.00 185.00,37.00 185.00,37.00 Z"/>

    <path
        style="fill:none;stroke:#cc0000;stroke-width:1;stroke-linecap:round;stroke-linejoin:round;"
        d="M 17.81,48.00
           C 18.59,45.94 20.02,41.25 21.70,39.99
             23.14,38.91 26.22,38.91 27.96,39.05
             32.73,39.44 32.91,42.02 34.42,46.00
             36.75,52.10 41.06,62.02 42.00,68.00
             39.57,68.00 35.54,68.31 33.49,66.98
             31.16,65.47 30.95,62.11 26.00,62.11
             21.05,62.11 20.84,65.47 18.51,66.98
             16.56,68.24 13.27,67.99 11.00,68.00
             11.94,62.02 15.55,53.93 17.81,48.00 Z"/>

    <path
        style="fill:none;stroke:#cc0000;stroke-width:1;stroke-linecap:round;stroke-linejoin:round;"
        d="M 51.58,46.04
           C 55.84,45.81 61.94,43.44 65.69,46.60
             69.28,49.62 68.00,63.20 68.00,68.00
             68.00,68.00 61.00,68.00 61.00,68.00
             61.00,68.00 60.00,52.00 60.00,52.00
             50.42,52.33 52.00,56.00 52.00,68.00
             52.00,68.00 45.00,68.00 45.00,68.00
             45.00,68.00 45.00,46.04 45.00,46.04
             45.00,46.04 51.58,46.04 51.58,46.04 Z"/>

    <path
        style="fill:none;stroke:#cc0000;stroke-width:1;stroke-linecap:round;stroke-linejoin:round;"
        d="M 141.57,48.23
           C 145.09,52.19 146.91,67.22 134.00,67.96
             130.57,68.15 126.92,67.96 124.23,65.57
             119.08,61.00 119.40,49.94 127.02,45.74
             131.76,44.58 138.00,44.21 141.57,48.23 Z"/>

    <path
        style="fill:none;stroke:#cc0000;stroke-width:1;stroke-linecap:round;stroke-linejoin:round;"
        d="M 110.00,48.00
           C 110.00,48.00 118.00,46.00 118.00,46.00
             118.00,46.00 118.00,52.00 118.00,52.00
             118.00,52.00 109.00,53.00 109.00,53.00
             109.00,53.00 109.00,68.00 109.00,68.00
             109.00,68.00 102.00,68.00 102.00,68.00
             102.00,68.00 102.00,46.00 102.00,46.00
             102.00,46.00 110.00,48.00 110.00,48.00 Z"/>

    <path
        style="fill:none;stroke:#cc0000;stroke-width:1;stroke-linecap:round;stroke-linejoin:round;"
        d="M 156.00,46.00
           C 156.00,46.00 156.00,68.00 156.00,68.00
             156.00,68.00 149.00,68.00 149.00,68.00
             149.00,68.00 149.00,46.00 149.00,46.00
             149.00,46.00 156.00,46.00 156.00,46.00 Z"/>

    <path
        style="fill:none;stroke:#cc0000;stroke-width:1;stroke-linecap:round;stroke-linejoin:round;"
        d="M 23.00,57.00
           C 23.00,57.00 29.00,57.00 29.00,57.00
             29.00,57.00 26.00,50.00 26.00,50.00
             26.00,50.00 23.00,57.00 23.00,57.00 Z"/>

    <path
        style="fill:none;stroke:#cc0000;stroke-width:1;stroke-linecap:round;stroke-linejoin:round;"
        d="M 84.15,51.60
           C 75.54,55.34 86.04,67.82 88.89,58.85
             88.98,57.87 88.98,56.05 88.89,55.00
             88.89,55.00 88.89,51.00 88.89,51.00
             87.45,51.05 85.60,50.97 84.15,51.60 Z"/>

    <path
        style="fill:none;stroke:#cc0000;stroke-width:1;stroke-linecap:round;stroke-linejoin:round;"
        d="M 133.70,61.34
           C 136.30,60.31 138.24,51.09 131.30,51.66
             126.99,55.17 129.18,63.15 133.70,61.34 Z"/>

    <path
        style="fill:none;stroke:#cc0000;stroke-width:1;stroke-linecap:round;stroke-linejoin:round;"
        d="M 173.15,51.60
           C 164.54,55.34 175.04,67.82 177.89,58.85
             177.98,57.87 177.98,56.05 177.89,55.00
             177.89,55.00 177.89,51.00 177.89,51.00
             176.45,51.05 174.60,50.97 173.15,51.60 Z"/>
</svg>